# xmcd CD database file
#
# Track frame offsets:
#	150
#	15218
#	29149
#	45717
#	57327
#	74936
#	91640
#	108502
#	126961
#	143263
#	154536
#	171841
#	191029
#	207862
#	225690
#	301224
#
# Disc length: 4293 seconds
#
# Revision: 0
# Processed by: cddbd v1.4PL0 Copyright (c) Steve Scherf et al.
# Submitted via: Feurio! 1.61 - http://www.feurio.com
#
DISCID=d610c310
DTITLE=Various Artist - Greatest Hits 2002 - 08
DYEAR=1900
DGENRE=
TTITLE0=Marilyn Manson - Tainted Love
TTITLE1=Marylin Manson - Disposable Teen
TTITLE2=B3 - You win again
TTITLE3=Z100 - Which Backstreet Boy is Gay
TTITLE4=Band ohne Namen - Slipping
TTITLE5=Bosson - We live
TTITLE6=Die Prinzen - Deutschland (Original Version)
TTITLE7=Kate Winslet - What if
TTITLE8=Kid Rock - Forever
TTITLE9=Last Pinto Crew - Ring um die Eier
TTITLE10=Nelly Furtado - Baby Girl
TTITLE11=No Angels and Donovan - Atlantis
TTITLE12=No Angels - When the Angels Sing
TTITLE13=Passion Fruit - I´m Dreaming
TTITLE14=Stefan Raab - Wir kiffen (Volle Version)
TTITLE15=Elton John - I Want Love
EXTD=
EXTT0=
EXTT1=
EXTT2=
EXTT3=
EXTT4=
EXTT5=
EXTT6=
EXTT7=
EXTT8=
EXTT9=
EXTT10=
EXTT11=
EXTT12=
EXTT13=
EXTT14=
EXTT15=
PLAYORDER=
